<svg width="328" height="78" viewBox="0 0 328 78" fill="none" xmlns="http://www.w3.org/2000/svg">
<path d="M25.0427 30.7706C12.0227 30.7706 1.49731 41.1927 1.49731 54.0095L25.0427 54.0095L25.0427 30.7706Z" fill="#00AEBF"/>
<path d="M25.0427 30.7706C12.0227 30.7706 1.49731 41.1927 1.49731 54.0095L25.0427 54.0095L25.0427 30.7706Z" fill="url(#paint0_linear_2428_18837)" fill-opacity="0.2"/>
<path fill-rule="evenodd" clip-rule="evenodd" d="M48.4016 54.0156C48.4016 41.1987 37.8762 30.7766 24.8562 30.7766V54.0156H24.8631C24.9751 66.7778 35.4856 77.0608 48.3954 77.0608V54.0156H48.4016Z" fill="url(#paint1_linear_2428_18837)"/>
<path d="M52.6284 47.0288C65.6484 47.0288 76.1738 36.6066 76.1738 23.7898L52.6284 23.7898L52.6284 47.0288Z" fill="#FF904D"/>
<path d="M52.6284 47.0288C65.6484 47.0288 76.1738 36.6066 76.1738 23.7898L52.6284 23.7898L52.6284 47.0288Z" fill="url(#paint2_linear_2428_18837)" fill-opacity="0.2"/>
<path fill-rule="evenodd" clip-rule="evenodd" d="M29.2695 23.7837C29.2695 36.6006 39.7949 47.0227 52.8149 47.0227V23.7837H52.808C52.6961 11.0215 42.1856 0.73838 29.2758 0.73838L29.2758 23.7837H29.2695Z" fill="url(#paint3_linear_2428_18837)"/>
<path d="M106.511 18.3867C108.291 19.4117 109.18 20.959 109.18 23.0286C109.18 24.7499 108.571 26.1618 107.353 27.2643C106.134 28.3667 104.635 28.918 102.856 28.918H94.2393V8.60966H102.247C103.987 8.60966 105.448 9.15122 106.627 10.2343C107.827 11.2981 108.426 12.6617 108.426 14.325C108.426 16.0077 107.788 17.3616 106.511 18.3867ZM102.247 12.3522H98.2429V16.82H102.247C102.865 16.82 103.378 16.6073 103.784 16.1818C104.21 15.7563 104.422 15.2244 104.422 14.5861C104.422 13.9478 104.219 13.416 103.813 12.9905C103.407 12.5649 102.885 12.3522 102.247 12.3522ZM102.856 25.1754C103.533 25.1754 104.094 24.953 104.538 24.5082C104.983 24.044 105.206 23.4637 105.206 22.7675C105.206 22.0905 104.983 21.5296 104.538 21.0848C104.094 20.6206 103.533 20.3885 102.856 20.3885H98.2429V25.1754H102.856ZM113.179 12.6713C112.561 12.6713 112.019 12.4489 111.555 12.0041C111.11 11.5399 110.888 10.9983 110.888 10.3794C110.888 9.76047 111.11 9.21891 111.555 8.75472C112.019 8.29053 112.561 8.05844 113.179 8.05844C113.818 8.05844 114.359 8.29053 114.804 8.75472C115.268 9.21891 115.5 9.76047 115.5 10.3794C115.5 10.9983 115.268 11.5399 114.804 12.0041C114.359 12.4489 113.818 12.6713 113.179 12.6713ZM111.323 28.918V14.412H115.065V28.918H111.323ZM130.542 27.1192C129.052 28.5892 127.234 29.3241 125.087 29.3241C122.94 29.3241 121.122 28.5892 119.633 27.1192C118.163 25.63 117.428 23.8119 117.428 21.665C117.428 19.5181 118.163 17.7097 119.633 16.2398C121.122 14.7505 122.94 14.0059 125.087 14.0059C127.234 14.0059 129.052 14.7505 130.542 16.2398C132.031 17.7097 132.775 19.5181 132.775 21.665C132.775 23.8119 132.031 25.63 130.542 27.1192ZM122.273 24.5372C123.027 25.2915 123.965 25.6686 125.087 25.6686C126.209 25.6686 127.147 25.2915 127.901 24.5372C128.656 23.7829 129.033 22.8255 129.033 21.665C129.033 20.5045 128.656 19.5471 127.901 18.7928C127.147 18.0385 126.209 17.6614 125.087 17.6614C123.965 17.6614 123.027 18.0385 122.273 18.7928C121.538 19.5471 121.171 20.5045 121.171 21.665C121.171 22.8255 121.538 23.7829 122.273 24.5372ZM154.346 12.4392H146.222V17.2552H154.114V21.0848H146.222V28.918H142.219V8.60966H154.346V12.4392ZM167.805 14.412H171.548V28.918H167.805V27.2063C166.683 28.6182 165.107 29.3241 163.076 29.3241C161.142 29.3241 159.479 28.5892 158.086 27.1192C156.713 25.63 156.026 23.8119 156.026 21.665C156.026 19.5181 156.713 17.7097 158.086 16.2398C159.479 14.7505 161.142 14.0059 163.076 14.0059C165.107 14.0059 166.683 14.7118 167.805 16.1237V14.412ZM160.9 24.6242C161.655 25.3785 162.612 25.7557 163.773 25.7557C164.933 25.7557 165.89 25.3785 166.645 24.6242C167.418 23.8506 167.805 22.8642 167.805 21.665C167.805 20.4658 167.418 19.4891 166.645 18.7348C165.89 17.9612 164.933 17.5743 163.773 17.5743C162.612 17.5743 161.655 17.9612 160.9 18.7348C160.146 19.4891 159.769 20.4658 159.769 21.665C159.769 22.8642 160.146 23.8506 160.9 24.6242ZM178.376 16.9071C178.724 15.9787 179.294 15.2824 180.087 14.8182C180.9 14.354 181.799 14.1219 182.786 14.1219V18.2996C181.644 18.1642 180.619 18.3963 179.71 18.9959C178.821 19.5955 178.376 20.5916 178.376 21.9841V28.918H174.633V14.412H178.376V16.9071ZM200.71 14.0059C202.373 14.0059 203.698 14.5474 204.684 15.6305C205.69 16.7136 206.193 18.1642 206.193 19.9823V28.918H202.45V20.2434C202.45 19.3731 202.238 18.6961 201.812 18.2126C201.387 17.7291 200.787 17.4873 200.013 17.4873C199.162 17.4873 198.495 17.7677 198.012 18.3286C197.547 18.8895 197.315 19.7019 197.315 20.7656V28.918H193.573V20.2434C193.573 19.3731 193.36 18.6961 192.934 18.2126C192.509 17.7291 191.909 17.4873 191.136 17.4873C190.304 17.4873 189.637 17.7677 189.134 18.3286C188.65 18.8895 188.409 19.7019 188.409 20.7656V28.918H184.666V14.412H188.409V15.9497C189.279 14.6538 190.623 14.0059 192.441 14.0059C194.221 14.0059 195.536 14.7022 196.387 16.0947C197.354 14.7022 198.795 14.0059 200.71 14.0059ZM220.088 14.412H223.83V28.918H220.088V27.2063C218.966 28.6182 217.39 29.3241 215.359 29.3241C213.425 29.3241 211.761 28.5892 210.369 27.1192C208.996 25.63 208.309 23.8119 208.309 21.665C208.309 19.5181 208.996 17.7097 210.369 16.2398C211.761 14.7505 213.425 14.0059 215.359 14.0059C217.39 14.0059 218.966 14.7118 220.088 16.1237V14.412ZM213.183 24.6242C213.937 25.3785 214.895 25.7557 216.055 25.7557C217.216 25.7557 218.173 25.3785 218.927 24.6242C219.701 23.8506 220.088 22.8642 220.088 21.665C220.088 20.4658 219.701 19.4891 218.927 18.7348C218.173 17.9612 217.216 17.5743 216.055 17.5743C214.895 17.5743 213.937 17.9612 213.183 18.7348C212.429 19.4891 212.051 20.4658 212.051 21.665C212.051 22.8642 212.429 23.8506 213.183 24.6242ZM249.498 28.918H244.943L240.997 22.3033L237.052 28.918H232.526L238.734 18.5027L232.845 8.60966H237.371L240.997 14.7022L244.624 8.60966H249.15L243.26 18.4737L249.498 28.918ZM278.252 8.60966V28.918H274.277V15.7466L268.562 25.1754H268.097L262.382 15.7756V28.918H258.378V8.60966H262.498L268.33 18.2126L274.132 8.60966H278.252ZM281.727 8.60966H285.731V28.918H281.727V8.60966ZM302.614 8.60966V12.4392H297.131V28.918H293.128V12.4392H287.673V8.60966H302.614ZM105.786 44.6097H109.761V64.918H105.786V56.5045H98.2429V64.918H94.2393V44.6097H98.2429V52.675H105.786V44.6097ZM124.075 50.412H127.818V64.918H124.075V63.2063C122.954 64.6182 121.377 65.3241 119.347 65.3241C117.412 65.3241 115.749 64.5892 114.357 63.1192C112.983 61.63 112.297 59.8119 112.297 57.665C112.297 55.5181 112.983 53.7097 114.357 52.2398C115.749 50.7505 117.412 50.0059 119.347 50.0059C121.377 50.0059 122.954 50.7118 124.075 52.1237V50.412ZM117.171 60.6242C117.925 61.3785 118.882 61.7557 120.043 61.7557C121.203 61.7557 122.161 61.3785 122.915 60.6242C123.689 59.8506 124.075 58.8642 124.075 57.665C124.075 56.4658 123.689 55.4891 122.915 54.7348C122.161 53.9612 121.203 53.5743 120.043 53.5743C118.882 53.5743 117.925 53.9612 117.171 54.7348C116.416 55.4891 116.039 56.4658 116.039 57.665C116.039 58.8642 116.416 59.8506 117.171 60.6242ZM137.808 65.3241C135.623 65.3241 133.795 64.5892 132.325 63.1192C130.874 61.6493 130.149 59.8312 130.149 57.665C130.149 55.4988 130.874 53.6807 132.325 52.2108C133.795 50.7408 135.623 50.0059 137.808 50.0059C139.22 50.0059 140.506 50.3443 141.667 51.0213C142.827 51.6982 143.707 52.6073 144.307 53.7484L141.087 55.6342C140.797 55.0346 140.352 54.5607 139.752 54.2126C139.172 53.8644 138.514 53.6904 137.779 53.6904C136.657 53.6904 135.729 54.0675 134.994 54.8218C134.259 55.5568 133.892 56.5045 133.892 57.665C133.892 58.8061 134.259 59.7539 134.994 60.5082C135.729 61.2431 136.657 61.6106 137.779 61.6106C138.534 61.6106 139.201 61.4462 139.781 61.1174C140.381 60.7693 140.826 60.2954 141.116 59.6958L144.365 61.5526C143.727 62.6937 142.827 63.6124 141.667 64.3087C140.506 64.9857 139.22 65.3241 137.808 65.3241ZM159.411 64.918H155.059L149.779 58.3323V64.918H146.036V44.6097H149.779V56.7946L154.769 50.412H159.237L153.405 57.578L159.411 64.918ZM162.827 48.6713C162.208 48.6713 161.667 48.4489 161.203 48.0041C160.758 47.5399 160.535 46.9983 160.535 46.3794C160.535 45.7605 160.758 45.2189 161.203 44.7547C161.667 44.2905 162.208 44.0584 162.827 44.0584C163.465 44.0584 164.007 44.2905 164.452 44.7547C164.916 45.2189 165.148 45.7605 165.148 46.3794C165.148 46.9983 164.916 47.5399 164.452 48.0041C164.007 48.4489 163.465 48.6713 162.827 48.6713ZM160.97 64.918V50.412H164.713V64.918H160.97ZM175.895 50.0059C177.481 50.0059 178.787 50.5378 179.812 51.6015C180.856 52.6653 181.379 54.1352 181.379 56.0113V64.918H177.636V56.4755C177.636 55.5085 177.375 54.7735 176.853 54.2706C176.331 53.7484 175.634 53.4873 174.764 53.4873C173.797 53.4873 173.023 53.7871 172.443 54.3867C171.863 54.9862 171.573 55.8856 171.573 57.0848V64.918H167.83V50.412H171.573V52.0367C172.482 50.6828 173.923 50.0059 175.895 50.0059ZM195.378 50.412H199.033V64.2217C199.033 66.4653 198.288 68.177 196.799 69.3568C195.329 70.5366 193.55 71.1265 191.461 71.1265C189.894 71.1265 188.511 70.8267 187.312 70.2271C186.132 69.6276 185.223 68.7475 184.585 67.5871L187.776 65.7593C188.511 67.1132 189.778 67.7901 191.577 67.7901C192.757 67.7901 193.685 67.4807 194.362 66.8618C195.039 66.2428 195.378 65.3628 195.378 64.2217V62.655C194.275 64.125 192.728 64.8599 190.736 64.8599C188.686 64.8599 186.964 64.1443 185.572 62.7131C184.198 61.2625 183.512 59.5024 183.512 57.4329C183.512 55.3827 184.208 53.6324 185.601 52.1818C186.993 50.7312 188.705 50.0059 190.736 50.0059C192.728 50.0059 194.275 50.7408 195.378 52.2108V50.412ZM188.386 60.3051C189.159 61.04 190.136 61.4075 191.316 61.4075C192.496 61.4075 193.463 61.04 194.217 60.3051C194.991 59.5508 195.378 58.5934 195.378 57.4329C195.378 56.2918 194.991 55.3537 194.217 54.6188C193.463 53.8644 192.496 53.4873 191.316 53.4873C190.136 53.4873 189.159 53.8644 188.386 54.6188C187.631 55.3537 187.254 56.2918 187.254 57.4329C187.254 58.5934 187.631 59.5508 188.386 60.3051ZM229.11 44.6097V64.918H225.136V51.7466L219.42 61.1754H218.956L213.241 51.7756V64.918H209.237V44.6097H213.357L219.188 54.2126L224.991 44.6097H229.11ZM235.574 59.2026C236.077 61.0207 237.441 61.9297 239.665 61.9297C241.096 61.9297 242.179 61.4462 242.914 60.4792L245.932 62.2199C244.5 64.2894 242.392 65.3241 239.607 65.3241C237.209 65.3241 235.284 64.5988 233.834 63.1482C232.383 61.6977 231.658 59.8699 231.658 57.665C231.658 55.4794 232.373 53.6614 233.805 52.2108C235.236 50.7408 237.073 50.0059 239.317 50.0059C241.444 50.0059 243.195 50.7408 244.568 52.2108C245.961 53.6807 246.657 55.4988 246.657 57.665C246.657 58.1485 246.609 58.6611 246.512 59.2026H235.574ZM235.516 56.3014H242.914C242.702 55.315 242.257 54.5801 241.58 54.0965C240.922 53.613 240.168 53.3712 239.317 53.3712C238.311 53.3712 237.48 53.6324 236.822 54.1546C236.164 54.6574 235.729 55.3731 235.516 56.3014ZM259.844 44.6097H263.586V64.918H259.844V63.2063C258.741 64.6182 257.174 65.3241 255.144 65.3241C253.19 65.3241 251.517 64.5892 250.125 63.1192C248.751 61.63 248.065 59.8119 248.065 57.665C248.065 55.5181 248.751 53.7097 250.125 52.2398C251.517 50.7505 253.19 50.0059 255.144 50.0059C257.174 50.0059 258.741 50.7118 259.844 52.1237V44.6097ZM252.939 60.6242C253.712 61.3785 254.679 61.7557 255.84 61.7557C257 61.7557 257.958 61.3785 258.712 60.6242C259.466 59.8506 259.844 58.8642 259.844 57.665C259.844 56.4658 259.466 55.4891 258.712 54.7348C257.958 53.9612 257 53.5743 255.84 53.5743C254.679 53.5743 253.712 53.9612 252.939 54.7348C252.184 55.4891 251.807 56.4658 251.807 57.665C251.807 58.8642 252.184 59.8506 252.939 60.6242ZM268.557 48.6713C267.938 48.6713 267.397 48.4489 266.933 48.0041C266.488 47.5399 266.265 46.9983 266.265 46.3794C266.265 45.7605 266.488 45.2189 266.933 44.7547C267.397 44.2905 267.938 44.0584 268.557 44.0584C269.196 44.0584 269.737 44.2905 270.182 44.7547C270.646 45.2189 270.878 45.7605 270.878 46.3794C270.878 46.9983 270.646 47.5399 270.182 48.0041C269.737 48.4489 269.196 48.6713 268.557 48.6713ZM266.701 64.918V50.412H270.443V64.918H266.701ZM280.465 65.3241C278.28 65.3241 276.452 64.5892 274.982 63.1192C273.531 61.6493 272.806 59.8312 272.806 57.665C272.806 55.4988 273.531 53.6807 274.982 52.2108C276.452 50.7408 278.28 50.0059 280.465 50.0059C281.877 50.0059 283.163 50.3443 284.324 51.0213C285.484 51.6982 286.364 52.6073 286.964 53.7484L283.743 55.6342C283.453 55.0346 283.008 54.5607 282.409 54.2126C281.829 53.8644 281.171 53.6904 280.436 53.6904C279.314 53.6904 278.386 54.0675 277.651 54.8218C276.916 55.5568 276.548 56.5045 276.548 57.665C276.548 58.8061 276.916 59.7539 277.651 60.5082C278.386 61.2431 279.314 61.6106 280.436 61.6106C281.19 61.6106 281.858 61.4462 282.438 61.1174C283.037 60.7693 283.482 60.2954 283.772 59.6958L287.022 61.5526C286.383 62.6937 285.484 63.6124 284.324 64.3087C283.163 64.9857 281.877 65.3241 280.465 65.3241ZM290.55 48.6713C289.931 48.6713 289.389 48.4489 288.925 48.0041C288.48 47.5399 288.258 46.9983 288.258 46.3794C288.258 45.7605 288.48 45.2189 288.925 44.7547C289.389 44.2905 289.931 44.0584 290.55 44.0584C291.188 44.0584 291.729 44.2905 292.174 44.7547C292.638 45.2189 292.871 45.7605 292.871 46.3794C292.871 46.9983 292.638 47.5399 292.174 48.0041C291.729 48.4489 291.188 48.6713 290.55 48.6713ZM288.693 64.918V50.412H292.435V64.918H288.693ZM303.618 50.0059C305.204 50.0059 306.509 50.5378 307.534 51.6015C308.579 52.6653 309.101 54.1352 309.101 56.0113V64.918H305.359V56.4755C305.359 55.5085 305.097 54.7735 304.575 54.2706C304.053 53.7484 303.357 53.4873 302.486 53.4873C301.519 53.4873 300.746 53.7871 300.165 54.3867C299.585 54.9862 299.295 55.8856 299.295 57.0848V64.918H295.553V50.412H299.295V52.0367C300.204 50.6828 301.645 50.0059 303.618 50.0059ZM315.151 59.2026C315.654 61.0207 317.017 61.9297 319.241 61.9297C320.673 61.9297 321.756 61.4462 322.491 60.4792L325.508 62.2199C324.077 64.2894 321.969 65.3241 319.183 65.3241C316.785 65.3241 314.861 64.5988 313.41 63.1482C311.959 61.6977 311.234 59.8699 311.234 57.665C311.234 55.4794 311.95 53.6614 313.381 52.2108C314.812 50.7408 316.65 50.0059 318.893 50.0059C321.021 50.0059 322.771 50.7408 324.144 52.2108C325.537 53.6807 326.233 55.4988 326.233 57.665C326.233 58.1485 326.185 58.6611 326.088 59.2026H315.151ZM315.093 56.3014H322.491C322.278 55.315 321.833 54.5801 321.156 54.0965C320.499 53.613 319.744 53.3712 318.893 53.3712C317.888 53.3712 317.056 53.6324 316.398 54.1546C315.741 54.6574 315.306 55.3731 315.093 56.3014Z" fill="white"/>
<defs>
<linearGradient id="paint0_linear_2428_18837" x1="2.33284" y1="42.2338" x2="37.6009" y2="42.2338" gradientUnits="userSpaceOnUse">
<stop stop-color="#00AEBF"/>
<stop offset="0.817533"/>
</linearGradient>
<linearGradient id="paint1_linear_2428_18837" x1="36.4987" y1="30.915" x2="36.6257" y2="77.0608" gradientUnits="userSpaceOnUse">
<stop stop-color="#0099A8"/>
<stop offset="1" stop-color="#00AEBF"/>
</linearGradient>
<linearGradient id="paint2_linear_2428_18837" x1="75.3383" y1="35.5655" x2="40.0703" y2="35.5655" gradientUnits="userSpaceOnUse">
<stop stop-color="#FF904D"/>
<stop offset="0.817533"/>
</linearGradient>
<linearGradient id="paint3_linear_2428_18837" x1="41.1725" y1="46.8843" x2="41.0455" y2="0.738465" gradientUnits="userSpaceOnUse">
<stop stop-color="#FF7B29"/>
<stop offset="1" stop-color="#FF914D"/>
</linearGradient>
</defs>
</svg>
