<svg width="822" height="193" viewBox="0 0 822 193" fill="none" xmlns="http://www.w3.org/2000/svg">
<path d="M61.8371 75.818C29.1157 75.818 2.66376 102.01 2.66376 134.221L61.8371 134.221L61.8371 75.818Z" fill="#00AEBF"/>
<path d="M61.8371 75.818C29.1157 75.818 2.66376 102.01 2.66376 134.221L61.8371 134.221L61.8371 75.818Z" fill="url(#paint0_linear_746_33649)" fill-opacity="0.2"/>
<path fill-rule="evenodd" clip-rule="evenodd" d="M120.542 134.236C120.542 102.026 94.0898 75.8333 61.3683 75.8333V134.236H61.3857C61.6672 166.31 88.0818 192.153 120.526 192.153V134.236H120.542Z" fill="url(#paint1_linear_746_33649)"/>
<path d="M131.165 116.678C163.886 116.678 190.338 90.4852 190.338 58.2744L131.165 58.2744L131.165 116.678Z" fill="#FF904D"/>
<path d="M131.165 116.678C163.886 116.678 190.338 90.4852 190.338 58.2744L131.165 58.2744L131.165 116.678Z" fill="url(#paint2_linear_746_33649)" fill-opacity="0.2"/>
<path fill-rule="evenodd" clip-rule="evenodd" d="M72.46 58.2594C72.46 90.4701 98.912 116.663 131.633 116.663V58.2594H131.616C131.335 26.186 104.92 0.343018 72.4758 0.343018L72.4758 58.2594H72.46Z" fill="url(#paint3_linear_746_33649)"/>
<path d="M266.581 44.8269C271.053 47.4031 273.289 51.2917 273.289 56.4927C273.289 60.8188 271.757 64.3671 268.695 67.1378C265.633 69.9084 261.866 71.2937 257.394 71.2937H235.739V20.2557H255.863C260.237 20.2557 263.907 21.6167 266.872 24.3388C269.886 27.0122 271.393 30.439 271.393 34.6193C271.393 38.8481 269.789 42.2507 266.581 44.8269ZM255.863 29.6613H245.801V40.8896H255.863C257.418 40.8896 258.706 40.355 259.727 39.2856C260.796 38.2162 261.331 36.8795 261.331 35.2755C261.331 33.6714 260.821 32.3347 259.8 31.2653C258.779 30.196 257.467 29.6613 255.863 29.6613ZM257.394 61.8881C259.095 61.8881 260.505 61.3291 261.623 60.2112C262.741 59.0446 263.3 57.5864 263.3 55.8365C263.3 54.1352 262.741 52.7256 261.623 51.6076C260.505 50.441 259.095 49.8578 257.394 49.8578H245.801V61.8881H257.394ZM283.339 30.4633C281.784 30.4633 280.423 29.9043 279.256 28.7864C278.138 27.6198 277.579 26.2588 277.579 24.7033C277.579 23.1479 278.138 21.7869 279.256 20.6203C280.423 19.4537 281.784 18.8704 283.339 18.8704C284.943 18.8704 286.304 19.4537 287.422 20.6203C288.589 21.7869 289.172 23.1479 289.172 24.7033C289.172 26.2588 288.589 27.6198 287.422 28.7864C286.304 29.9043 284.943 30.4633 283.339 30.4633ZM278.673 71.2937V34.838H288.078V71.2937H278.673ZM326.972 66.7732C323.23 70.4674 318.661 72.3145 313.265 72.3145C307.87 72.3145 303.301 70.4674 299.558 66.7732C295.864 63.0304 294.017 58.4613 294.017 53.0659C294.017 47.6704 295.864 43.1256 299.558 39.4314C303.301 35.6886 307.87 33.8172 313.265 33.8172C318.661 33.8172 323.23 35.6886 326.972 39.4314C330.715 43.1256 332.587 47.6704 332.587 53.0659C332.587 58.4613 330.715 63.0304 326.972 66.7732ZM306.193 60.2841C308.088 62.1798 310.446 63.1276 313.265 63.1276C316.084 63.1276 318.442 62.1798 320.338 60.2841C322.233 58.3884 323.181 55.9823 323.181 53.0659C323.181 50.1494 322.233 47.7433 320.338 45.8476C318.442 43.9519 316.084 43.0041 313.265 43.0041C310.446 43.0041 308.088 43.9519 306.193 45.8476C304.346 47.7433 303.422 50.1494 303.422 53.0659C303.422 55.9823 304.346 58.3884 306.193 60.2841ZM386.796 29.88H366.381V41.9833H386.213V51.6076H366.381V71.2937H356.319V20.2557H386.796V29.88ZM420.622 34.838H430.028V71.2937H420.622V66.9919C417.803 70.5403 413.841 72.3145 408.737 72.3145C403.877 72.3145 399.696 70.4674 396.197 66.7732C392.746 63.0304 391.02 58.4613 391.02 53.0659C391.02 47.6704 392.746 43.1256 396.197 39.4314C399.696 35.6886 403.877 33.8172 408.737 33.8172C413.841 33.8172 417.803 35.5914 420.622 39.1398V34.838ZM403.269 60.5028C405.165 62.3985 407.571 63.3464 410.487 63.3464C413.404 63.3464 415.81 62.3985 417.706 60.5028C419.65 58.5585 420.622 56.0795 420.622 53.0659C420.622 50.0522 419.65 47.5975 417.706 45.7018C415.81 43.7575 413.404 42.7853 410.487 42.7853C407.571 42.7853 405.165 43.7575 403.269 45.7018C401.373 47.5975 400.426 50.0522 400.426 53.0659C400.426 56.0795 401.373 58.5585 403.269 60.5028ZM447.187 41.1084C448.062 38.7752 449.496 37.0253 451.489 35.8588C453.531 34.6922 455.791 34.1089 458.27 34.1089V44.6081C455.402 44.2679 452.826 44.8512 450.541 46.358C448.305 47.8648 447.187 50.3681 447.187 53.8679V71.2937H437.782V34.838H447.187V41.1084ZM503.316 33.8172C507.496 33.8172 510.826 35.1783 513.305 37.9003C515.833 40.6223 517.096 44.2679 517.096 48.837V71.2937H507.691V49.4932C507.691 47.3059 507.156 45.6046 506.087 44.3894C505.017 43.1742 503.511 42.5666 501.566 42.5666C499.427 42.5666 497.751 43.2714 496.535 44.681C495.369 46.0907 494.785 48.1322 494.785 50.8056V71.2937H485.38V49.4932C485.38 47.3059 484.845 45.6046 483.776 44.3894C482.706 43.1742 481.2 42.5666 479.255 42.5666C477.165 42.5666 475.488 43.2714 474.224 44.681C473.009 46.0907 472.402 48.1322 472.402 50.8056V71.2937H462.996V34.838H472.402V38.7023C474.589 35.4456 477.967 33.8172 482.536 33.8172C487.008 33.8172 490.314 35.5671 492.452 39.0669C494.883 35.5671 498.504 33.8172 503.316 33.8172ZM552.016 34.838H561.422V71.2937H552.016V66.9919C549.197 70.5403 545.236 72.3145 540.132 72.3145C535.271 72.3145 531.091 70.4674 527.591 66.7732C524.14 63.0304 522.414 58.4613 522.414 53.0659C522.414 47.6704 524.14 43.1256 527.591 39.4314C531.091 35.6886 535.271 33.8172 540.132 33.8172C545.236 33.8172 549.197 35.5914 552.016 39.1398V34.838ZM534.663 60.5028C536.559 62.3985 538.965 63.3464 541.882 63.3464C544.798 63.3464 547.204 62.3985 549.1 60.5028C551.044 58.5585 552.016 56.0795 552.016 53.0659C552.016 50.0522 551.044 47.5975 549.1 45.7018C547.204 43.7575 544.798 42.7853 541.882 42.7853C538.965 42.7853 536.559 43.7575 534.663 45.7018C532.768 47.5975 531.82 50.0522 531.82 53.0659C531.82 56.0795 532.768 58.5585 534.663 60.5028ZM625.929 71.2937H614.481L604.566 54.6699L594.65 71.2937H583.275L598.878 45.1185L584.077 20.2557H595.452L604.566 35.5671L613.679 20.2557H625.054L610.253 45.0456L625.929 71.2937ZM698.191 20.2557V71.2937H688.202V38.1919L673.839 61.8881H672.672L658.309 38.2648V71.2937H648.247V20.2557H658.6L673.255 44.3894L687.838 20.2557H698.191ZM706.926 20.2557H716.988V71.2937H706.926V20.2557ZM759.419 20.2557V29.88H745.639V71.2937H735.577V29.88H721.87V20.2557H759.419ZM264.758 110.256H274.747V161.294H264.758V140.149H245.801V161.294H235.739V110.256H245.801V130.525H264.758V110.256ZM310.722 124.838H320.128V161.294H310.722V156.992C307.903 160.54 303.942 162.314 298.838 162.314C293.977 162.314 289.797 160.467 286.297 156.773C282.846 153.03 281.12 148.461 281.12 143.066C281.12 137.67 282.846 133.126 286.297 129.431C289.797 125.689 293.977 123.817 298.838 123.817C303.942 123.817 307.903 125.591 310.722 129.14V124.838ZM293.369 150.503C295.265 152.399 297.671 153.346 300.588 153.346C303.504 153.346 305.91 152.399 307.806 150.503C309.75 148.559 310.722 146.08 310.722 143.066C310.722 140.052 309.75 137.597 307.806 135.702C305.91 133.757 303.504 132.785 300.588 132.785C297.671 132.785 295.265 133.757 293.369 135.702C291.474 137.597 290.526 140.052 290.526 143.066C290.526 146.08 291.474 148.559 293.369 150.503ZM345.235 162.314C339.742 162.314 335.149 160.467 331.455 156.773C327.809 153.079 325.986 148.51 325.986 143.066C325.986 137.622 327.809 133.053 331.455 129.359C335.149 125.664 339.742 123.817 345.235 123.817C348.783 123.817 352.016 124.668 354.932 126.369C357.849 128.07 360.06 130.355 361.567 133.223L353.474 137.962C352.745 136.455 351.627 135.264 350.12 134.389C348.662 133.514 347.009 133.077 345.162 133.077C342.343 133.077 340.01 134.025 338.163 135.921C336.316 137.768 335.392 140.149 335.392 143.066C335.392 145.934 336.316 148.315 338.163 150.211C340.01 152.058 342.343 152.982 345.162 152.982C347.058 152.982 348.735 152.569 350.193 151.742C351.7 150.867 352.818 149.676 353.547 148.17L361.713 152.836C360.109 155.704 357.849 158.013 354.932 159.763C352.016 161.464 348.783 162.314 345.235 162.314ZM399.525 161.294H388.588L375.318 144.743V161.294H365.913V110.256H375.318V140.879L387.859 124.838H399.088L384.432 142.847L399.525 161.294ZM408.111 120.463C406.556 120.463 405.195 119.904 404.028 118.786C402.91 117.62 402.351 116.259 402.351 114.703C402.351 113.148 402.91 111.787 404.028 110.62C405.195 109.454 406.556 108.87 408.111 108.87C409.716 108.87 411.077 109.454 412.194 110.62C413.361 111.787 413.944 113.148 413.944 114.703C413.944 116.259 413.361 117.62 412.194 118.786C411.077 119.904 409.716 120.463 408.111 120.463ZM403.445 161.294V124.838H412.851V161.294H403.445ZM440.954 123.817C444.94 123.817 448.221 125.154 450.797 127.827C453.422 130.501 454.734 134.195 454.734 138.91V161.294H445.329V140.076C445.329 137.646 444.673 135.799 443.36 134.535C442.048 133.223 440.298 132.567 438.11 132.567C435.68 132.567 433.736 133.32 432.278 134.827C430.819 136.334 430.09 138.594 430.09 141.608V161.294H420.685V124.838H430.09V128.921C432.375 125.519 435.996 123.817 440.954 123.817ZM489.916 124.838H499.103V159.544C499.103 165.182 497.231 169.484 493.488 172.449C489.794 175.414 485.322 176.897 480.073 176.897C476.136 176.897 472.66 176.143 469.646 174.636C466.681 173.13 464.397 170.918 462.793 168.002L470.813 163.408C472.66 166.811 475.844 168.512 480.364 168.512C483.329 168.512 485.663 167.734 487.364 166.179C489.065 164.623 489.916 162.412 489.916 159.544V155.607C487.145 159.301 483.257 161.148 478.25 161.148C473.098 161.148 468.771 159.349 465.272 155.752C461.821 152.107 460.095 147.684 460.095 142.483C460.095 137.33 461.845 132.931 465.345 129.286C468.844 125.64 473.146 123.817 478.25 123.817C483.257 123.817 487.145 125.664 489.916 129.359V124.838ZM472.344 149.701C474.288 151.548 476.743 152.471 479.708 152.471C482.673 152.471 485.104 151.548 486.999 149.701C488.944 147.805 489.916 145.399 489.916 142.483C489.916 139.615 488.944 137.257 486.999 135.41C485.104 133.514 482.673 132.567 479.708 132.567C476.743 132.567 474.288 133.514 472.344 135.41C470.448 137.257 469.501 139.615 469.501 142.483C469.501 145.399 470.448 147.805 472.344 149.701ZM574.692 110.256V161.294H564.703V128.192L550.339 151.888H549.173L534.809 128.265V161.294H524.747V110.256H535.101L549.756 134.389L564.338 110.256H574.692ZM590.937 146.93C592.201 151.499 595.627 153.784 601.217 153.784C604.814 153.784 607.536 152.569 609.383 150.138L616.966 154.513C613.369 159.714 608.071 162.314 601.071 162.314C595.044 162.314 590.208 160.492 586.562 156.846C582.917 153.201 581.094 148.607 581.094 143.066C581.094 137.573 582.892 133.004 586.489 129.359C590.086 125.664 594.704 123.817 600.342 123.817C605.689 123.817 610.088 125.664 613.539 129.359C617.039 133.053 618.789 137.622 618.789 143.066C618.789 144.281 618.667 145.569 618.424 146.93H590.937ZM590.791 139.639H609.383C608.849 137.16 607.731 135.313 606.029 134.098C604.377 132.883 602.481 132.275 600.342 132.275C597.815 132.275 595.725 132.931 594.072 134.244C592.419 135.507 591.326 137.306 590.791 139.639ZM651.929 110.256H661.334V161.294H651.929V156.992C649.158 160.54 645.221 162.314 640.117 162.314C635.208 162.314 631.003 160.467 627.504 156.773C624.052 153.03 622.327 148.461 622.327 143.066C622.327 137.67 624.052 133.126 627.504 129.431C631.003 125.689 635.208 123.817 640.117 123.817C645.221 123.817 649.158 125.591 651.929 129.14V110.256ZM634.576 150.503C636.52 152.399 638.951 153.346 641.867 153.346C644.784 153.346 647.19 152.399 649.085 150.503C650.981 148.559 651.929 146.08 651.929 143.066C651.929 140.052 650.981 137.597 649.085 135.702C647.19 133.757 644.784 132.785 641.867 132.785C638.951 132.785 636.52 133.757 634.576 135.702C632.68 137.597 631.732 140.052 631.732 143.066C631.732 146.08 632.68 148.559 634.576 150.503ZM673.828 120.463C672.272 120.463 670.911 119.904 669.745 118.786C668.627 117.62 668.068 116.259 668.068 114.703C668.068 113.148 668.627 111.787 669.745 110.62C670.911 109.454 672.272 108.87 673.828 108.87C675.432 108.87 676.793 109.454 677.911 110.62C679.078 111.787 679.661 113.148 679.661 114.703C679.661 116.259 679.078 117.62 677.911 118.786C676.793 119.904 675.432 120.463 673.828 120.463ZM669.162 161.294V124.838H678.567V161.294H669.162ZM703.754 162.314C698.261 162.314 693.668 160.467 689.974 156.773C686.328 153.079 684.505 148.51 684.505 143.066C684.505 137.622 686.328 133.053 689.974 129.359C693.668 125.664 698.261 123.817 703.754 123.817C707.302 123.817 710.535 124.668 713.451 126.369C716.368 128.07 718.579 130.355 720.086 133.223L711.993 137.962C711.264 136.455 710.146 135.264 708.639 134.389C707.181 133.514 705.528 133.077 703.681 133.077C700.862 133.077 698.529 134.025 696.682 135.921C694.835 137.768 693.911 140.149 693.911 143.066C693.911 145.934 694.835 148.315 696.682 150.211C698.529 152.058 700.862 152.982 703.681 152.982C705.577 152.982 707.254 152.569 708.712 151.742C710.219 150.867 711.337 149.676 712.066 148.17L720.232 152.836C718.628 155.704 716.368 158.013 713.451 159.763C710.535 161.464 707.302 162.314 703.754 162.314ZM729.098 120.463C727.543 120.463 726.182 119.904 725.015 118.786C723.897 117.62 723.338 116.259 723.338 114.703C723.338 113.148 723.897 111.787 725.015 110.62C726.182 109.454 727.543 108.87 729.098 108.87C730.702 108.87 732.063 109.454 733.181 110.62C734.348 111.787 734.931 113.148 734.931 114.703C734.931 116.259 734.348 117.62 733.181 118.786C732.063 119.904 730.702 120.463 729.098 120.463ZM724.432 161.294V124.838H733.837V161.294H724.432ZM761.941 123.817C765.927 123.817 769.208 125.154 771.784 127.827C774.409 130.501 775.721 134.195 775.721 138.91V161.294H766.315V140.076C766.315 137.646 765.659 135.799 764.347 134.535C763.034 133.223 761.285 132.567 759.097 132.567C756.667 132.567 754.723 133.32 753.264 134.827C751.806 136.334 751.077 138.594 751.077 141.608V161.294H741.671V124.838H751.077V128.921C753.362 125.519 756.983 123.817 761.941 123.817ZM790.925 146.93C792.189 151.499 795.615 153.784 801.205 153.784C804.802 153.784 807.524 152.569 809.371 150.138L816.954 154.513C813.357 159.714 808.059 162.314 801.059 162.314C795.032 162.314 790.196 160.492 786.55 156.846C782.904 153.201 781.082 148.607 781.082 143.066C781.082 137.573 782.88 133.004 786.477 129.359C790.074 125.664 794.692 123.817 800.33 123.817C805.677 123.817 810.076 125.664 813.527 129.359C817.027 133.053 818.777 137.622 818.777 143.066C818.777 144.281 818.655 145.569 818.412 146.93H790.925ZM790.779 139.639H809.371C808.837 137.16 807.719 135.313 806.017 134.098C804.365 132.883 802.469 132.275 800.33 132.275C797.803 132.275 795.713 132.931 794.06 134.244C792.407 135.507 791.314 137.306 790.779 139.639Z" fill="#212745"/>
<defs>
<linearGradient id="paint0_linear_746_33649" x1="4.76356" y1="104.627" x2="93.3977" y2="104.627" gradientUnits="userSpaceOnUse">
<stop stop-color="#00AEBF"/>
<stop offset="0.817533"/>
</linearGradient>
<linearGradient id="paint1_linear_746_33649" x1="90.6277" y1="76.181" x2="90.9469" y2="192.153" gradientUnits="userSpaceOnUse">
<stop stop-color="#0099A8"/>
<stop offset="1" stop-color="#00AEBF"/>
</linearGradient>
<linearGradient id="paint2_linear_746_33649" x1="188.238" y1="87.8686" x2="99.6041" y2="87.8686" gradientUnits="userSpaceOnUse">
<stop stop-color="#FF904D"/>
<stop offset="0.817533"/>
</linearGradient>
<linearGradient id="paint3_linear_746_33649" x1="102.374" y1="116.315" x2="102.055" y2="0.342991" gradientUnits="userSpaceOnUse">
<stop stop-color="#FF7B29"/>
<stop offset="1" stop-color="#FF914D"/>
</linearGradient>
</defs>
</svg>
